<svg width="91" height="24" fill="none" xmlns="http://www.w3.org/2000/svg"><g clip-path="url(#a)"><path d="M6.987 17.106c-1.735 1.723-4.673 1.716-5.493-.58a9.88 9.88 0 0 1 .185-7.122A9.945 9.945 0 0 1 5.36 4.947a10.043 10.043 0 0 1 5.554-1.674c1.977 0 3.91.583 5.553 1.674a9.945 9.945 0 0 1 3.682 4.457 9.87 9.87 0 0 1 .185 7.122c-.82 2.297-3.758 2.303-5.493.58l-2.678-2.66c-.255-.255-.229-.674-.158-1.026a1.098 1.098 0 0 0-.473-1.134 1.118 1.118 0 0 0-1.645.495 1.098 1.098 0 0 0-.064.639c.07.352.097.771-.159 1.026l-2.677 2.66Z" fill="url(#b)"/><path d="M29.042 14.72h2.687v1.574h-4.738V7.928h2.051v6.792ZM35.395 16.39a3.75 3.75 0 0 1-1.775-.418 3.116 3.116 0 0 1-1.236-1.192c-.296-.516-.444-1.12-.444-1.811 0-.683.152-1.283.456-1.8.304-.524.72-.925 1.248-1.203a3.75 3.75 0 0 1 1.775-.417 3.75 3.75 0 0 1 1.775.417c.528.278.944.68 1.248 1.204.304.516.456 1.116.456 1.799 0 .683-.156 1.287-.468 1.811a3.076 3.076 0 0 1-1.26 1.192 3.75 3.75 0 0 1-1.775.417Zm0-1.764c.392 0 .724-.143.996-.43.28-.285.42-.695.42-1.227 0-.532-.136-.941-.408-1.227a1.284 1.284 0 0 0-.984-.43c-.4 0-.732.144-.996.43-.264.278-.395.687-.395 1.227 0 .532.128.942.383 1.228.264.286.592.429.984.429ZM42.169 9.549c.471 0 .883.095 1.235.286.36.19.636.44.828.75v-.94h2.05v6.637c0 .612-.123 1.164-.37 1.656-.24.5-.613.898-1.117 1.192-.495.294-1.115.441-1.859.441-.991 0-1.795-.234-2.41-.703-.617-.46-.968-1.088-1.056-1.883h2.027a.944.944 0 0 0 .456.596c.24.15.535.226.887.226.424 0 .76-.123 1.008-.37.256-.237.384-.623.384-1.155v-.941c-.2.31-.476.564-.828.762-.352.19-.764.286-1.235.286a2.785 2.785 0 0 1-1.5-.417 3.023 3.023 0 0 1-1.067-1.204c-.256-.524-.384-1.128-.384-1.81 0-.684.128-1.284.384-1.8.264-.517.62-.914 1.067-1.192a2.785 2.785 0 0 1 1.5-.417Zm2.063 3.42c0-.508-.144-.91-.432-1.204a1.369 1.369 0 0 0-1.032-.44c-.407 0-.755.147-1.043.44-.28.286-.42.684-.42 1.192 0 .509.14.914.42 1.216.288.294.636.44 1.043.44.408 0 .752-.146 1.032-.44.288-.294.432-.696.432-1.204ZM50.454 16.39a3.749 3.749 0 0 1-1.776-.418 3.116 3.116 0 0 1-1.235-1.192c-.296-.516-.444-1.12-.444-1.811 0-.683.152-1.283.456-1.8.304-.524.72-.925 1.247-1.203a3.75 3.75 0 0 1 1.776-.417 3.75 3.75 0 0 1 1.775.417c.528.278.944.68 1.247 1.204.304.516.456 1.116.456 1.799 0 .683-.156 1.287-.468 1.811a3.076 3.076 0 0 1-1.26 1.192 3.75 3.75 0 0 1-1.774.417Zm0-1.764c.392 0 .723-.143.995-.43.28-.285.42-.695.42-1.227 0-.532-.136-.941-.408-1.227a1.284 1.284 0 0 0-.983-.43c-.4 0-.732.144-.996.43-.264.278-.396.687-.396 1.227 0 .532.128.942.384 1.228.264.286.592.429.984.429ZM55.716 8.953c-.36 0-.656-.104-.888-.31a1.047 1.047 0 0 1-.336-.787c0-.317.112-.58.336-.786.232-.215.528-.322.888-.322.352 0 .64.107.863.322.232.206.348.469.348.786 0 .31-.116.572-.348.787-.224.206-.511.31-.863.31Zm1.02.69v6.65h-2.052v-6.65h2.051ZM59.913 10.586c.2-.31.476-.56.828-.751.352-.19.764-.286 1.236-.286.552 0 1.051.139 1.499.417.448.278.8.675 1.055 1.192.264.516.397 1.116.397 1.8 0 .682-.133 1.286-.397 1.81a2.935 2.935 0 0 1-1.055 1.204 2.784 2.784 0 0 1-1.5.417c-.463 0-.875-.095-1.235-.286a2.261 2.261 0 0 1-.828-.739v4.1h-2.05v-9.82h2.05v.942Zm2.928 2.371c0-.508-.145-.906-.433-1.192a1.382 1.382 0 0 0-1.043-.44c-.408 0-.756.147-1.044.44-.28.294-.42.695-.42 1.204 0 .508.14.91.42 1.204.288.294.636.44 1.044.44.408 0 .756-.146 1.043-.44.288-.302.432-.707.432-1.216ZM68.367 16.39c-.584 0-1.104-.1-1.56-.299-.455-.198-.815-.468-1.079-.81a2.17 2.17 0 0 1-.444-1.168h2.027c.024.23.132.417.324.56.192.143.428.215.708.215.256 0 .452-.048.587-.143a.467.467 0 0 0 .217-.394c0-.19-.1-.33-.3-.417-.2-.095-.524-.198-.972-.31a9.95 9.95 0 0 1-1.2-.345 2.154 2.154 0 0 1-.827-.584c-.232-.27-.348-.632-.348-1.085 0-.38.104-.726.312-1.036.216-.318.528-.568.936-.751.415-.183.907-.274 1.475-.274.84 0 1.5.206 1.98.62.487.413.767.96.84 1.644h-1.896a.801.801 0 0 0-.312-.548c-.168-.135-.392-.203-.672-.203-.24 0-.424.048-.552.143a.422.422 0 0 0-.191.37c0 .19.1.333.3.429.207.095.527.19.959.286.495.127.9.254 1.211.381.312.12.584.318.816.596.24.27.364.636.372 1.096 0 .39-.112.74-.336 1.049-.216.302-.532.54-.948.715-.407.175-.883.262-1.427.262ZM78.582 9.645v6.65H76.53v-.906a2.289 2.289 0 0 1-.851.715 2.605 2.605 0 0 1-1.176.262c-.512 0-.964-.111-1.355-.334a2.329 2.329 0 0 1-.912-.989c-.216-.43-.324-.933-.324-1.513V9.645h2.04v3.61c0 .445.115.79.347 1.037.232.246.544.37.936.37.4 0 .716-.124.947-.37.232-.246.348-.592.348-1.037v-3.61h2.052ZM88.236 9.572c.831 0 1.491.25 1.979.751.495.5.744 1.196.744 2.085v3.886h-2.04v-3.611c0-.43-.116-.76-.347-.99-.225-.238-.536-.357-.936-.357s-.716.12-.948.357c-.223.23-.335.56-.335.99v3.61h-2.04v-3.61c0-.43-.116-.76-.347-.99-.225-.238-.537-.357-.936-.357-.4 0-.716.12-.948.357-.224.23-.335.56-.335.99v3.61h-2.052v-6.65h2.052v.835c.207-.278.48-.497.815-.655.336-.167.716-.25 1.14-.25.504 0 .951.107 1.343.321.4.214.712.52.936.918.232-.366.547-.664.947-.894.4-.23.836-.346 1.308-.346Z" fill="#3A3B7B"/></g><defs><linearGradient id="b" x1="20" y1="8.239" x2="2.257" y2="8.239" gradientUnits="userSpaceOnUse"><stop stop-color="#64C2DB"/><stop offset=".51" stop-color="#7476ED"/><stop offset="1" stop-color="#E56F8C"/></linearGradient><clipPath id="a"><path fill="#fff" transform="translate(.918)" d="M0 0h90.041v24H0z"/></clipPath></defs></svg>