<svg width="91" height="24" fill="none" xmlns="http://www.w3.org/2000/svg"><g clip-path="url(#a)"><path d="M26.302 16.715h6.444v-1.928h-4.154V7.523h-2.29v9.192ZM36.564 15.43c-.919 0-1.398-.797-1.398-1.993 0-1.196.48-2.005 1.398-2.005.919 0 1.41.81 1.41 2.005 0 1.196-.491 1.993-1.41 1.993Zm.013 1.49c2.135 0 3.532-1.503 3.532-3.483 0-1.98-1.397-3.484-3.532-3.484-2.122 0-3.546 1.504-3.546 3.484s1.424 3.484 3.546 3.484ZM43.805 18.99c.983 0 1.85-.219 2.433-.733.53-.476.88-1.196.88-2.185v-5.94h-2.019v.707h-.026c-.388-.552-.983-.9-1.863-.9-1.644 0-2.782 1.363-2.782 3.291 0 2.019 1.384 3.125 2.872 3.125.803 0 1.307-.322 1.696-.759h.051v.656c0 .797-.375 1.26-1.268 1.26-.699 0-1.048-.296-1.164-.643H40.57c.207 1.375 1.41 2.12 3.235 2.12Zm-.013-4.191c-.79 0-1.307-.643-1.307-1.633 0-1.002.518-1.645 1.307-1.645.88 0 1.346.745 1.346 1.632 0 .926-.427 1.646-1.346 1.646ZM51.269 15.43c-.919 0-1.398-.797-1.398-1.993 0-1.196.48-2.005 1.398-2.005.919 0 1.41.81 1.41 2.005 0 1.196-.491 1.993-1.41 1.993Zm.013 1.49c2.135 0 3.533-1.503 3.533-3.483 0-1.98-1.398-3.484-3.533-3.484-2.122 0-3.546 1.504-3.546 3.484s1.424 3.484 3.546 3.484ZM55.43 16.715h2.11v-6.582h-2.11v6.582Zm0-7.495h2.11V7.523h-2.11V9.22ZM58.454 18.887h2.11v-2.854h.025c.414.553 1.023.887 1.877.887 1.733 0 2.885-1.363 2.885-3.497 0-1.98-1.074-3.484-2.834-3.484-.906 0-1.553.399-2.005.99h-.04v-.797h-2.018v8.755Zm3.468-3.587c-.906 0-1.423-.732-1.423-1.8 0-1.066.465-1.876 1.384-1.876.906 0 1.333.745 1.333 1.877 0 1.118-.492 1.8-1.294 1.8ZM68.785 16.92c1.734 0 3.016-.746 3.016-2.185 0-1.684-1.372-1.98-2.537-2.173-.84-.154-1.591-.218-1.591-.681 0-.412.4-.604.918-.604.583 0 .984.18 1.062.77h1.94c-.103-1.298-1.112-2.108-2.989-2.108-1.565 0-2.86.72-2.86 2.109 0 1.543 1.23 1.851 2.382 2.044.88.154 1.682.218 1.682.81 0 .424-.401.655-1.035.655-.7 0-1.14-.321-1.217-.977h-1.992c.064 1.453 1.28 2.34 3.222 2.34ZM74.665 16.908c.919 0 1.501-.36 1.98-1.003h.039v.81h2.018v-6.582h-2.109v3.677c0 .784-.44 1.324-1.164 1.324-.673 0-.997-.399-.997-1.119v-3.882h-2.096v4.32c0 1.465.802 2.455 2.33 2.455ZM79.62 16.714h2.11v-3.69c0-.783.388-1.336 1.047-1.336.635 0 .932.411.932 1.118v3.908h2.11v-3.69c0-.783.375-1.336 1.047-1.336.635 0 .932.411.932 1.118v3.908h2.11v-4.28c0-1.479-.751-2.495-2.252-2.495-.854 0-1.566.36-2.084 1.158h-.025c-.337-.708-.997-1.158-1.864-1.158-.957 0-1.591.45-2.005 1.132h-.04v-.939H79.62v6.582Z" fill="#2F234F"/><path fill-rule="evenodd" clip-rule="evenodd" d="M4.748 3.376A10.82 10.82 0 0 0 2.674 5.26c2.474-.228 5.618.144 9.267 1.957 3.898 1.936 7.036 2.002 9.22 1.583a10.61 10.61 0 0 0-.743-1.713c-2.5.262-5.705-.085-9.441-1.94-2.372-1.18-4.463-1.664-6.229-1.77Zm14.21 1.644a10.787 10.787 0 0 0-8.038-3.57c-.938 0-1.848.118-2.715.342 1.175.318 2.423.784 3.736 1.437 2.735 1.358 5.097 1.796 7.017 1.791Zm2.67 5.872c-2.638.518-6.282.411-10.651-1.76C6.892 7.105 3.642 7.13 1.449 7.615c-.113.024-.224.05-.332.078-.287.62-.516 1.273-.68 1.95.175-.047.357-.091.544-.132 2.66-.588 6.418-.562 10.96 1.694 4.085 2.029 7.336 2.003 9.528 1.52.076-.017.15-.034.222-.052a10.776 10.776 0 0 0-.063-1.78Zm-.289 4.04c-2.613.455-6.15.28-10.362-1.812-4.085-2.028-7.335-2.003-9.528-1.519-.487.108-.924.238-1.31.377-.002.061-.002.123-.002.184 0 5.917 4.828 10.713 10.783 10.713 4.991 0 9.19-3.368 10.42-7.942Z" fill="#7F57F1"/></g><defs><clipPath id="a"><path fill="#fff" transform="translate(.082)" d="M0 0h90.041v24H0z"/></clipPath></defs></svg>