<svg width="91" height="24" fill="none" xmlns="http://www.w3.org/2000/svg"><g clip-path="url(#a)"><path d="M14.13 15.818h4.578L7.365 4.363H2.786L14.13 15.818Z" fill="#7476ED"/><path d="m9.375 4.363 11.53 10.91V4.362h-3.12v3.444l-3.64-3.444h-4.77Z" fill="#E56F8C"/><path d="M.59 4.908v10.91h2.964v-3.436l3.457 3.435h4.56L.59 4.908Z" fill="#64C2DB"/><path d="M27.985 14.178h2.802v1.641h-4.941V7.092h2.139v7.086ZM34.331 15.818c-.673 0-1.28-.145-1.821-.433a3.213 3.213 0 0 1-1.268-1.235c-.303-.536-.455-1.162-.455-1.878 0-.708.156-1.33.468-1.865.312-.544.738-.96 1.28-1.248a3.815 3.815 0 0 1 1.82-.432c.674 0 1.28.144 1.822.432.541.288.968.704 1.28 1.248.312.535.468 1.157.468 1.865s-.16 1.334-.48 1.878a3.171 3.171 0 0 1-1.293 1.235 3.813 3.813 0 0 1-1.82.433Zm0-1.829c.402 0 .743-.148 1.022-.445.287-.296.43-.72.43-1.272s-.14-.976-.418-1.272a1.31 1.31 0 0 0-1.01-.445c-.41 0-.75.148-1.02.445-.271.288-.407.712-.407 1.272 0 .552.132.976.394 1.272.27.297.607.445 1.01.445Z" fill="#3A3B7B"/><path d="M40.905 8.727c.476 0 .892.098 1.248.295.364.197.642.456.836.777v-.974h2.072v6.864c0 .633-.125 1.204-.376 1.713a2.79 2.79 0 0 1-1.126 1.232c-.501.304-1.127.456-1.879.456-1.001 0-1.813-.242-2.435-.727-.622-.476-.978-1.125-1.067-1.947h2.048a.973.973 0 0 0 .46.616c.243.156.542.234.897.234.429 0 .768-.127 1.018-.382.259-.246.388-.645.388-1.195v-.973c-.202.32-.48.583-.836.788-.355.197-.772.296-1.248.296a2.765 2.765 0 0 1-1.515-.431c-.452-.296-.812-.711-1.078-1.245-.259-.542-.388-1.167-.388-1.873 0-.707.13-1.327.388-1.86.266-.535.626-.946 1.078-1.233a2.765 2.765 0 0 1 1.515-.431Zm2.084 3.536c0-.525-.145-.94-.436-1.244a1.367 1.367 0 0 0-1.042-.456c-.412 0-.764.152-1.055.456-.282.295-.424.706-.424 1.232s.142.945.425 1.257c.29.304.642.456 1.054.456.412 0 .76-.152 1.042-.456.29-.304.436-.719.436-1.245ZM49.43 15.818a3.304 3.304 0 0 1-1.68-.433 3.09 3.09 0 0 1-1.17-1.235c-.28-.536-.42-1.162-.42-1.878 0-.708.143-1.33.43-1.865.289-.544.682-.96 1.182-1.248.5-.288 1.06-.432 1.681-.432s1.182.144 1.681.432c.5.288.894.704 1.182 1.248.288.535.431 1.157.431 1.865s-.147 1.334-.443 1.878a3.044 3.044 0 0 1-1.192 1.235c-.5.288-1.06.433-1.681.433Zm0-1.829c.372 0 .686-.148.943-.445.266-.296.398-.72.398-1.272s-.129-.976-.386-1.272a1.17 1.17 0 0 0-.932-.445c-.378 0-.693.148-.943.445-.25.288-.374.712-.374 1.272 0 .552.12.976.363 1.272.25.297.56.445.932.445ZM54.676 8.268c-.406 0-.739-.107-1-.32a1.035 1.035 0 0 1-.38-.808c0-.327.127-.597.38-.809.261-.22.594-.331 1-.331.397 0 .721.11.974.33a.998.998 0 0 1 .392.81c0 .319-.13.588-.392.809-.253.212-.577.319-.974.319Zm1.15.71v6.84h-2.313v-6.84h2.313ZM59.052 9.81c.187-.324.444-.585.772-.784.328-.2.712-.3 1.152-.3.515 0 .981.146 1.398.437.418.29.746.705.985 1.245.246.54.369 1.167.369 1.881s-.123 1.345-.37 1.893c-.238.54-.566.96-.984 1.258a2.39 2.39 0 0 1-1.398.437c-.432 0-.816-.1-1.152-.3a2.215 2.215 0 0 1-.772-.772v4.285H57.14V8.826h1.912v.984Zm2.73 2.48c0-.532-.134-.948-.403-1.247a1.227 1.227 0 0 0-.973-.46c-.38 0-.705.153-.973.46-.261.308-.392.727-.392 1.259 0 .531.13.95.392 1.258.268.307.592.46.973.46.38 0 .705-.153.973-.46.269-.316.403-.74.403-1.27ZM67.49 15.818c-.608 0-1.15-.104-1.624-.31-.476-.205-.851-.485-1.126-.84a2.24 2.24 0 0 1-.463-1.21h2.114a.8.8 0 0 0 .337.58c.2.149.446.223.738.223.267 0 .47-.05.613-.148a.484.484 0 0 0 .225-.408c0-.198-.105-.342-.313-.432-.209-.1-.546-.206-1.013-.322a10.39 10.39 0 0 1-1.25-.358 2.247 2.247 0 0 1-.863-.605c-.242-.28-.363-.655-.363-1.124 0-.396.109-.754.325-1.075.225-.33.55-.589.976-.778.433-.19.946-.284 1.538-.284.875 0 1.563.214 2.063.642.508.428.8.997.875 1.705h-1.975a.833.833 0 0 0-.326-.569c-.175-.14-.408-.21-.7-.21-.25 0-.441.05-.575.149a.437.437 0 0 0-.2.383c0 .197.104.345.312.444.217.1.551.198 1.001.297.517.132.938.263 1.263.395.325.124.608.33.85.618.25.28.38.659.388 1.136 0 .404-.117.766-.35 1.088-.226.312-.555.56-.988.74-.425.182-.921.273-1.488.273ZM77.455 9.273v6.476h-2.027v-.882a2.249 2.249 0 0 1-.841.697c-.347.17-.734.255-1.161.255-.506 0-.953-.108-1.34-.325a2.286 2.286 0 0 1-.9-.963c-.213-.418-.32-.91-.32-1.474V9.273h2.015v3.517c0 .433.114.77.343 1.01.23.24.537.36.924.36.395 0 .707-.12.937-.36.23-.24.343-.577.343-1.01V9.273h2.027ZM87.294 9.273c.851 0 1.527.244 2.026.732.508.487.761 1.164.761 2.03v3.784h-2.087v-3.517c0-.417-.119-.738-.356-.963-.23-.232-.549-.348-.958-.348-.41 0-.733.116-.97.348-.229.225-.344.546-.344.963v3.517H83.28v-3.517c0-.417-.119-.738-.356-.963-.23-.232-.549-.348-.958-.348-.41 0-.733.116-.97.348-.229.225-.344.546-.344.963v3.517h-2.1V9.343h2.1v.812c.213-.27.491-.483.835-.638a2.698 2.698 0 0 1 1.166-.244c.516 0 .975.105 1.376.314.41.209.728.507.958.893.237-.356.56-.646.97-.87.41-.224.855-.337 1.338-.337Z" fill="#3A3B7B"/></g><defs><clipPath id="a"><path fill="#fff" transform="translate(.041)" d="M0 0h90.041v24H0z"/></clipPath></defs></svg>