<svg width="91" height="24" fill="none" xmlns="http://www.w3.org/2000/svg"><g clip-path="url(#a)"><path d="M1.396 17.367V6.383l5.528 3.051v4.913l4.423 2.471 4.422-2.471V9.434l5.529-3.051v10.985l-9.951 5.492-9.951-5.492Z" fill="#192657"/><path fill-rule="evenodd" clip-rule="evenodd" d="M4.16 7.909 1.396 6.383l9.95-5.492 9.952 5.492-2.765 1.526v8.086l-7.186 4.119-7.187-4.12V7.91Zm14.074.165-2.465 1.36v-.03l-4.422-2.472-4.423 2.472v.03l-2.465-1.36v7.752l6.888 3.947 6.887-3.947V8.074Z" fill="url(#b)"/><path d="M26.596 16.5V7.274h1.751v7.646h4.246V16.5h-5.997ZM36.373 16.684c-.654 0-1.242-.131-1.764-.395a2.977 2.977 0 0 1-1.234-1.147c-.3-.5-.451-1.103-.451-1.806v-.21c0-.704.15-1.306.451-1.806.3-.501.712-.884 1.234-1.147.522-.264 1.11-.396 1.764-.396.655 0 1.243.132 1.765.396.522.263.933.646 1.234 1.147.3.5.451 1.102.451 1.806v.21c0 .703-.15 1.305-.45 1.806-.302.501-.713.883-1.235 1.147-.522.264-1.11.395-1.764.395Zm0-1.476c.514 0 .938-.162 1.274-.488.336-.334.504-.808.504-1.423v-.132c0-.615-.168-1.085-.504-1.41-.327-.334-.752-.501-1.273-.501-.514 0-.938.167-1.274.5-.336.326-.504.796-.504 1.411v.132c0 .615.168 1.09.504 1.423.336.326.76.488 1.273.488ZM40.451 13.257v-.21c0-.686.137-1.27.411-1.754a2.836 2.836 0 0 1 1.088-1.12c.46-.264.96-.396 1.5-.396.601 0 1.057.106 1.366.317.31.21.535.43.677.659h.239v-.791h1.645v7.698c0 .448-.133.804-.398 1.068-.265.272-.62.408-1.061.408h-4.405v-1.45h3.82c.248 0 .372-.131.372-.395v-1.7h-.239c-.088.14-.212.285-.371.434-.16.141-.371.26-.637.356-.265.097-.601.145-1.008.145-.54 0-1.04-.127-1.5-.382a2.957 2.957 0 0 1-1.088-1.12c-.274-.492-.41-1.081-.41-1.767Zm3.476 1.82c.513 0 .942-.163 1.287-.488.345-.325.518-.783.518-1.371v-.132c0-.598-.173-1.055-.518-1.37-.336-.326-.765-.489-1.287-.489-.513 0-.942.163-1.287.488-.345.316-.517.773-.517 1.37v.133c0 .588.172 1.046.517 1.37.345.326.774.488 1.287.488ZM51.765 16.684c-.654 0-1.243-.131-1.765-.395a2.977 2.977 0 0 1-1.233-1.147c-.301-.5-.452-1.103-.452-1.806v-.21c0-.704.15-1.306.452-1.806.3-.501.711-.884 1.233-1.147.522-.264 1.11-.396 1.765-.396.655 0 1.243.132 1.765.396.522.263.933.646 1.234 1.147.3.5.45 1.102.45 1.806v.21c0 .703-.15 1.305-.45 1.806-.301.501-.712.883-1.234 1.147s-1.11.395-1.765.395Zm0-1.476c.513 0 .938-.162 1.274-.488.336-.334.504-.808.504-1.423v-.132c0-.615-.168-1.085-.504-1.41-.328-.334-.752-.501-1.274-.501-.513 0-.938.167-1.274.5-.336.326-.504.796-.504 1.411v.132c0 .615.168 1.09.504 1.423.337.326.761.488 1.274.488ZM56.16 16.5V9.96h1.672V16.5h-1.671Zm.837-7.303c-.301 0-.558-.097-.77-.29-.203-.193-.305-.448-.305-.765 0-.316.102-.57.305-.764.212-.193.469-.29.77-.29.31 0 .566.097.77.29.203.193.304.448.304.764 0 .317-.101.572-.305.765-.203.193-.46.29-.77.29ZM59.088 19.136V9.962h1.645v.79h.24c.15-.254.383-.478.702-.671.319-.203.774-.304 1.367-.304.53 0 1.022.132 1.472.396.452.255.814.633 1.089 1.133.274.501.41 1.108.41 1.82v.21c0 .712-.136 1.319-.41 1.82a2.908 2.908 0 0 1-1.089 1.146c-.45.255-.941.383-1.472.383-.398 0-.735-.049-1.009-.145a1.96 1.96 0 0 1-.65-.343 2.46 2.46 0 0 1-.384-.448h-.24v3.387h-1.671Zm3.45-3.901c.522 0 .95-.163 1.287-.488.344-.334.517-.817.517-1.45v-.132c0-.633-.172-1.112-.517-1.437-.345-.334-.774-.5-1.287-.5-.514 0-.943.166-1.287.5-.345.325-.518.804-.518 1.437v.132c0 .633.173 1.116.518 1.45.344.325.773.488 1.287.488ZM69.685 16.684c-.858 0-1.561-.184-2.11-.553-.548-.37-.88-.896-.995-1.582l1.54-.395c.061.307.163.549.304.725.151.175.332.303.545.382.22.07.46.105.716.105.389 0 .677-.066.863-.197.185-.141.278-.312.278-.514a.506.506 0 0 0-.265-.462c-.177-.114-.46-.206-.85-.277l-.37-.066a7.072 7.072 0 0 1-1.261-.355 2.358 2.358 0 0 1-.916-.646c-.23-.273-.345-.624-.345-1.055 0-.65.239-1.147.717-1.49.477-.35 1.106-.527 1.884-.527.734 0 1.344.163 1.83.488.487.325.805.751.956 1.279l-1.552.474c-.07-.334-.217-.571-.438-.712-.213-.14-.478-.21-.796-.21-.319 0-.562.057-.73.17a.5.5 0 0 0-.252.45c0 .21.088.368.265.474.177.096.416.17.717.224l.37.066c.496.087.943.206 1.342.355.406.141.725.348.955.62.239.264.358.624.358 1.08 0 .686-.252 1.218-.757 1.596-.495.369-1.163.553-2.003.553ZM75.82 16.606c-.512 0-.964-.114-1.353-.342a2.443 2.443 0 0 1-.889-.976c-.212-.413-.318-.887-.318-1.423V9.963h1.672v3.77c0 .492.12.861.358 1.107.247.246.597.37 1.048.37.513 0 .911-.168 1.194-.502.283-.342.425-.817.425-1.423V9.963h1.672V16.5h-1.646v-.857h-.238c-.107.22-.306.435-.598.646-.291.211-.734.316-1.327.316ZM80.892 16.501V9.963h1.645v.712h.238c.115-.22.306-.409.57-.567.266-.167.616-.25 1.05-.25.468 0 .844.092 1.127.276.283.176.5.409.65.699h.239c.15-.281.363-.514.637-.699.274-.184.663-.277 1.168-.277.406 0 .773.088 1.1.264.337.167.602.426.797.778.203.343.305.777.305 1.305V16.5h-1.672v-4.179c0-.36-.093-.628-.279-.804-.186-.184-.446-.277-.782-.277-.38 0-.677.123-.89.37-.203.237-.304.58-.304 1.028V16.5h-1.672v-4.179c0-.36-.093-.628-.279-.804-.186-.184-.446-.277-.783-.277-.38 0-.676.123-.889.37-.203.237-.305.58-.305 1.028V16.5h-1.671Z" fill="#192657"/></g><defs><linearGradient id="b" x1="4.16" y1="5.162" x2="19.086" y2="5.162" gradientUnits="userSpaceOnUse"><stop stop-color="#64C2DB"/><stop offset=".307" stop-color="#7476ED"/><stop offset=".604" stop-color="#C994DF"/><stop offset="1" stop-color="#E56F8C"/></linearGradient><clipPath id="a"><path fill="#fff" transform="translate(.878)" d="M0 0h90.041v24H0z"/></clipPath></defs></svg>