<svg width="91" height="24" fill="none" xmlns="http://www.w3.org/2000/svg"><path d="M14.655 17.678 2.949 9.657c-1.186-.813-.783-2.506.696-2.904L16.086 3.4a1.772 1.772 0 0 1 1.598.205 1.755 1.755 0 0 1 .761 1.41l-.737 11.376c-.087 1.35-1.867 2.101-3.053 1.288Z" fill="#E9327C"/><path d="M10.942 19.658 4.046 6.26a1.858 1.858 0 0 1 .15-1.945 1.88 1.88 0 0 1 1.812-.752l12.78 1.96a1.888 1.888 0 0 1 1.388.996 1.86 1.86 0 0 1 0 1.701L14.287 19.66a1.89 1.89 0 0 1-3.346 0Z" fill="#1DACE3"/><path d="m18.414 5.465-6.37-.977-7.822 2.11 3.122 6.068 7.31 5.012c.162.11.34.193.527.249l2.777-5.396.456-7.066ZM50.683 7.031a1.184 1.184 0 0 1 .739-1.099 1.205 1.205 0 0 1 1.305.258 1.186 1.186 0 0 1-.182 1.83c-.197.131-.428.2-.665.2a1.214 1.214 0 0 1-.843-.351 1.198 1.198 0 0 1-.354-.838Zm.2 1.771h1.995v6.608h-1.996V8.802ZM61.498 12.106a3.3 3.3 0 0 1-.859 2.401 3.34 3.34 0 0 1-2.32 1.088 2.515 2.515 0 0 1-1.982-.806v3.264h-1.995V8.802h1.995v.62a2.499 2.499 0 0 1 1.982-.805 3.357 3.357 0 0 1 2.32 1.088 3.312 3.312 0 0 1 .86 2.4Zm-1.995 0a1.566 1.566 0 0 0-1.005-1.425 1.592 1.592 0 0 0-1.712.366 1.57 1.57 0 0 0-.325 1.71c.12.285.324.528.583.7.26.17.564.261.876.261a1.527 1.527 0 0 0 1.155-.453 1.508 1.508 0 0 0 .428-1.16ZM67.656 13.425c0 1.52-1.33 2.168-2.767 2.168a2.928 2.928 0 0 1-1.673-.35 2.901 2.901 0 0 1-1.187-1.223l1.73-.978c.07.239.22.446.426.588.206.141.454.208.704.19.479 0 .718-.146.718-.41 0-.727-3.272-.343-3.272-2.63 0-1.44 1.223-2.167 2.61-2.167a2.924 2.924 0 0 1 2.593 1.414l-1.702.912a.96.96 0 0 0-.891-.584c-.346 0-.559.13-.559.37-.002.759 3.27.256 3.27 2.7ZM74.95 8.8v6.609h-1.996v-.623a2.275 2.275 0 0 1-1.902.807c-1.344 0-2.488-.952-2.488-2.736V8.8h1.996v3.767a1.078 1.078 0 0 0 .298.868 1.1 1.1 0 0 0 .86.334c.73 0 1.239-.423 1.239-1.361V8.8h1.993ZM86.385 11.351v4.058H84.39v-3.885c0-.66-.32-1.084-.958-1.084-.666 0-1.037.463-1.037 1.243v3.726h-1.996v-3.885c0-.66-.32-1.084-.958-1.084-.665 0-1.038.463-1.038 1.243v3.726h-1.995V8.801h1.999v.606a2.04 2.04 0 0 1 1.782-.793 1.992 1.992 0 0 1 1.743.872 2.19 2.19 0 0 1 1.93-.872c1.526.003 2.523 1.086 2.523 2.737ZM88.076 8.761c.818 0 1.48-.659 1.48-1.471 0-.813-.662-1.472-1.48-1.472s-1.481.66-1.481 1.472c0 .812.663 1.471 1.48 1.471ZM23.441 5.762h1.996v9.647h-1.996V5.762Zm3.126 6.343a3.484 3.484 0 0 1 .589-1.947 3.518 3.518 0 0 1 1.579-1.295 3.545 3.545 0 0 1 3.843.752 3.48 3.48 0 0 1 .769 3.816 3.505 3.505 0 0 1-1.298 1.573 3.54 3.54 0 0 1-1.958.59 3.506 3.506 0 0 1-2.499-1.01 3.461 3.461 0 0 1-1.025-2.479Zm5.056 0a1.529 1.529 0 0 0-1.852-1.446 1.532 1.532 0 0 0-1.181 1.203 1.511 1.511 0 0 0 .657 1.55c.25.164.545.253.846.253a1.501 1.501 0 0 0 1.11-.446 1.481 1.481 0 0 0 .422-1.114h-.002Zm9.95-3.306v6.278c0 2.22-1.743 3.158-3.512 3.158a3.42 3.42 0 0 1-1.803-.36 3.392 3.392 0 0 1-1.35-1.239l1.702-.978a1.53 1.53 0 0 0 1.517.833 1.333 1.333 0 0 0 1.092-.35 1.317 1.317 0 0 0 .409-1.064v-.608a2.363 2.363 0 0 1-1.943.86 3.391 3.391 0 0 1-2.322-1.02 3.347 3.347 0 0 1 0-4.675 3.39 3.39 0 0 1 2.322-1.02 2.377 2.377 0 0 1 1.943.86v-.675h1.944Zm-1.943 3.172a1.593 1.593 0 0 0-.948-1.525 1.62 1.62 0 0 0-1.778.304 1.597 1.597 0 0 0-.38 1.753 1.62 1.62 0 0 0 1.495 1.004 1.516 1.516 0 0 0 1.148-.413 1.496 1.496 0 0 0 .463-1.121v-.002Zm3.072.13a3.485 3.485 0 0 1 .589-1.948 3.518 3.518 0 0 1 1.579-1.294 3.545 3.545 0 0 1 3.843.752 3.48 3.48 0 0 1 .769 3.816 3.506 3.506 0 0 1-1.298 1.572 3.54 3.54 0 0 1-1.958.591 3.508 3.508 0 0 1-2.497-1.009 3.461 3.461 0 0 1-1.027-2.476v-.004Zm5.056 0a1.515 1.515 0 0 0-.972-1.377 1.54 1.54 0 0 0-1.655.354 1.518 1.518 0 0 0-.314 1.653c.117.275.313.51.564.676.251.165.546.253.847.253a1.5 1.5 0 0 0 1.106-.445 1.481 1.481 0 0 0 .424-1.11v-.004Z" fill="#001A49"/></svg>