<svg width="91" height="24" fill="none" xmlns="http://www.w3.org/2000/svg"><path d="M16.661 0 0 13.884h11.25L6.749 23.986l16.808-13.792H11.84L16.661 0Z" fill="#3182CE"/><path d="M16.661 0 9.136 11.21h11.182L6.749 23.985l16.808-13.792H11.84L16.661 0Z" fill="#2B6CB0"/><path d="M16.661 0 0 13.884h11.25L6.749 23.986l7.15-11.117H3.325L16.661 0Z" fill="#4299E1"/><path d="M63.622 17.004a9.895 9.895 0 0 1-2.041-.196 8.916 8.916 0 0 1-1.689-.55 8.596 8.596 0 0 1-1.36-.798l1.02-1.78c.715.506 1.435.877 2.16 1.112.724.227 1.417.34 2.08.34.288 0 .59-.026.904-.078a2.14 2.14 0 0 0 .785-.301.693.693 0 0 0 .327-.602.475.475 0 0 0-.157-.367.975.975 0 0 0-.406-.248 3.368 3.368 0 0 0-.615-.144 6.025 6.025 0 0 0-.746-.092l-.798-.079a9.76 9.76 0 0 1-1.662-.3 5.111 5.111 0 0 1-1.283-.537 2.522 2.522 0 0 1-.811-.825 2.135 2.135 0 0 1-.288-1.112c0-.471.113-.89.34-1.257.236-.366.563-.672.982-.916a5.071 5.071 0 0 1 1.44-.576 7.613 7.613 0 0 1 1.766-.196c.655 0 1.244.061 1.767.183.532.114 1 .27 1.4.471.41.201.75.42 1.021.655l-1.073 1.544c-.27-.2-.585-.37-.942-.51a5.687 5.687 0 0 0-1.113-.34 5.733 5.733 0 0 0-1.151-.118c-.393 0-.747.035-1.06.104-.306.061-.55.157-.734.288a.565.565 0 0 0-.261.485.57.57 0 0 0 .222.458c.157.113.358.205.602.274.245.062.515.11.812.144.296.035.584.07.863.105.524.053 1.039.122 1.545.21.506.078.96.209 1.361.392.41.175.737.428.982.76.244.322.366.763.366 1.321 0 .646-.196 1.2-.589 1.662-.392.454-.933.803-1.623 1.047-.68.245-1.461.367-2.343.367ZM82.912 16.98v-1.992h2.46V9.675h-2.46l-.044-1.92h7.203v1.92h-2.474v5.313h2.474v1.991h-7.16ZM26.902 15.476l.025 1.503h9.227l-.025-2h-5.76l5.617-5.72V7.755h-8.19V9.86h4.631l-5.525 5.615ZM38.008 16.98V7.754h8.22v1.854h-6.06v1.702h5.47v1.806h-5.47v1.94h6.19v1.922h-8.35ZM77.255 16.952c-.977 0-1.827-.192-2.552-.576a4.226 4.226 0 0 1-1.688-1.584c-.401-.672-.602-1.492-.602-2.356V7.755h2.251v4.681c0 3.164 5.248 3.164 5.248 0V7.755h2.173v4.681c0 .864-.2 1.684-.602 2.356a4.226 4.226 0 0 1-1.688 1.584c-.725.384-1.57.576-2.54.576ZM47.972 12.436V7.755h2.251v4.681c0 3.268 5.249 3.268 5.249 0V7.755h2.172v4.681c0 6.095-9.672 6.054-9.672 0Z" fill="#122743"/></svg>