<svg width="49" height="48" viewBox="0 0 49 48" fill="none" xmlns="http://www.w3.org/2000/svg">
<path d="M43.8991 20.6004L25.8991 4.60039C25.0991 4.00039 24.0991 4.00039 23.2991 4.60039L5.29912 20.6004C4.49912 21.4004 4.29912 22.6004 5.09912 23.4004C5.89912 24.2004 7.09912 24.4004 7.89912 23.6004L8.49912 22.8004V42.0004C8.49912 43.2004 9.29912 44.0004 10.4991 44.0004H38.4991C39.6991 44.0004 40.4991 43.2004 40.4991 42.0004V22.8004L41.0991 23.4004C41.8991 24.2004 43.0991 24.0004 43.8991 23.2004C44.6991 22.6004 44.6991 21.2004 43.8991 20.6004ZM24.4991 22.0004C27.4991 22.0004 29.8991 24.4004 29.8991 27.4004C29.8991 30.4004 27.4991 32.8004 24.4991 32.8004C21.4991 32.8004 19.0991 30.4004 19.0991 27.4004C19.0991 24.4004 21.4991 22.0004 24.4991 22.0004ZM14.4991 40.0004C14.4991 39.8004 14.4991 39.8004 14.6991 39.6004C19.0991 34.2004 27.0991 33.2004 32.4991 37.6004C33.2991 38.2004 33.8991 38.8004 34.4991 39.6004C34.4991 39.6004 34.4991 39.8004 34.6991 40.0004H14.4991Z" fill="#4299E1"/>
</svg>
